# xmcd
#
# Track frame offsets:
#	150
#	10029
#	26703
#	44316
#	57759
#	72332
#	84129
#	109118
#	118321
#	132611
#	154302
#	173920
#	197125
#
# Disc length: 2799 seconds
#
# Revision: 0
# Processed by: cddbd v1.4PL0 Copyright (c) Steve Scherf et al.
# Submitted via: EasyCDDAExtractor 5.0.5.1
#
DISCID=b10aed0d
DTITLE=Various Artist - Catch My Jumper
DYEAR=1998
DGENRE=Blues
TTITLE0=Scarecrow - My Dog Don't Bite
TTITLE1=Scarecrow  - She Fooled Me
TTITLE2=Scarecrow - Salty Dog
TTITLE3=Scarecrow - Swing Low Sweet Chariot
TTITLE4=Scarecrow - Going to Brownsville
TTITLE5=Scarecrow - Fightin' the Jug
TTITLE6=Scarecrow - Malted Milk Blues
TTITLE7=Scarecrow - Death in the Family
TTITLE8=Scarecrow - Flying So High
TTITLE9=Scarecrow  - Lost
TTITLE10=Scarecrow - Stir It Gal
TTITLE11=Scarecrow - Special Rider Blues
TTITLE12=Scarecrow - GOing' Down the Road Feelin' Bad
EXTD=
EXTT0=
EXTT1=
EXTT2=
EXTT3=
EXTT4=
EXTT5=
EXTT6=
EXTT7=
EXTT8=
EXTT9=
EXTT10=
EXTT11=
EXTT12=
PLAYORDER=
